<?xml version="1.0" standalone="no"?>
<!DOCTYPE svg PUBLIC "-//W3C//DTD SVG 20010904//EN"
 "http://www.w3.org/TR/2001/REC-SVG-20010904/DTD/svg10.dtd">
<svg version="1.0" xmlns="http://www.w3.org/2000/svg"
 width="1200.000000pt" height="1200.000000pt" viewBox="0 0 1200.000000 1200.000000"
 preserveAspectRatio="xMidYMid meet">
<metadata>
Created by potrace 1.14, written by Peter Selinger 2001-2017
</metadata>
<g transform="translate(0.000000,1200.000000) scale(0.100000,-0.100000)"
fill="#000000" stroke="none">
<path d="M8632 8239 c-76 -13 -168 -45 -242 -86 -330 -182 -577 -459 -775
-869 l-49 -100 -295 -18 c-742 -43 -983 -49 -1024 -27 -56 30 -62 99 -38 418
27 346 -22 493 -164 493 -46 0 -59 -5 -90 -31 -24 -21 -40 -47 -50 -83 -23
-78 -60 -272 -90 -461 -32 -205 -41 -249 -61 -295 -28 -65 -16 -63 -534 -105
-459 -38 -549 -55 -576 -107 -13 -24 -13 -32 -2 -45 11 -14 44 -15 283 -10
148 3 351 13 450 22 268 24 337 9 350 -77 7 -47 -21 -395 -61 -752 l-25 -229
-89 -96 c-48 -53 -146 -177 -217 -276 -219 -307 -349 -474 -541 -698 -113
-132 -154 -170 -222 -206 -114 -61 -202 -34 -257 76 l-28 58 0 400 c0 249 5
475 14 599 12 155 12 220 4 298 -6 55 -9 107 -6 115 3 7 25 27 48 43 102 70
97 194 -9 240 -157 70 -343 3 -611 -220 -82 -69 -201 -190 -231 -234 -8 -14
-61 -49 -117 -79 -268 -142 -367 -163 -717 -153 -201 5 -344 17 -357 30 -3 3
-8 25 -10 50 -4 32 2 65 20 118 38 113 105 421 122 564 17 149 20 468 5 629
-20 207 -78 403 -156 517 -77 114 -202 177 -325 164 -141 -14 -315 -109 -428
-232 -160 -175 -339 -479 -464 -789 -209 -518 -365 -1319 -406 -2085 -28 -515
-25 -687 15 -820 19 -65 65 -117 110 -126 19 -3 37 -10 40 -15 13 -22 105 11
152 55 26 23 65 95 76 138 3 14 13 186 21 380 15 355 27 517 65 853 58 510
214 1244 349 1645 94 280 211 505 329 631 146 156 251 169 342 41 48 -67 95
-204 116 -341 22 -141 29 -423 15 -570 -27 -269 -109 -580 -198 -743 -54 -100
-152 -160 -289 -178 -151 -20 -271 -78 -366 -177 -47 -50 -57 -68 -63 -107
-21 -134 80 -224 238 -214 62 4 86 12 164 52 94 49 151 98 269 232 119 135
180 150 664 162 336 9 347 10 423 36 43 14 104 39 137 56 l58 29 -43 -92 c-83
-178 -145 -423 -145 -573 0 -159 38 -245 130 -292 58 -30 134 -25 191 12 71
48 91 80 391 641 98 183 189 338 207 353 23 19 69 15 81 -7 9 -19 2 -147 -31
-534 -15 -177 -6 -341 25 -480 30 -130 61 -200 112 -256 101 -112 232 -118
399 -18 200 119 510 497 844 1027 57 91 110 172 118 180 17 18 17 27 -1 -185
-33 -391 -29 -725 14 -1027 23 -162 40 -232 86 -351 37 -96 58 -131 113 -190
52 -55 99 -77 168 -77 79 0 119 13 193 61 139 89 230 189 406 444 151 218 361
546 537 840 97 162 93 158 100 99 4 -27 9 -80 13 -119 3 -38 21 -129 39 -201
96 -382 323 -686 570 -760 89 -27 256 -25 358 4 195 56 387 180 588 381 188
189 335 372 540 674 55 82 102 147 103 145 2 -1 0 -30 -5 -63 -11 -90 -10
-363 2 -452 22 -159 82 -301 170 -396 215 -235 532 -161 732 169 47 79 67 150
74 270 7 120 -11 215 -64 338 -19 45 -43 114 -54 154 -16 65 -17 77 -5 107 27
65 101 85 461 125 359 40 430 53 561 102 43 15 51 22 47 38 -5 19 -15 20 -227
20 -345 0 -636 -22 -861 -65 -100 -19 -143 -41 -173 -85 -20 -29 -23 -45 -20
-91 3 -48 14 -74 68 -165 104 -179 118 -206 134 -270 42 -164 -1 -330 -117
-449 -38 -39 -62 -55 -90 -60 -51 -10 -113 9 -134 41 -9 14 -29 87 -45 162
-50 233 -43 381 32 668 46 178 148 360 253 449 114 98 126 187 38 288 -42 48
-113 71 -195 65 -161 -13 -290 -145 -428 -437 -33 -69 -85 -160 -115 -201 -30
-41 -96 -134 -146 -206 -51 -72 -132 -188 -181 -259 -175 -249 -380 -448 -666
-647 -183 -127 -307 -173 -448 -166 -111 5 -193 42 -279 125 -59 58 -148 184
-196 279 -39 78 -95 245 -111 337 -37 205 -44 565 -16 847 43 433 232 1013
448 1375 149 250 408 473 630 542 135 42 235 22 334 -66 88 -78 100 -176 38
-324 -56 -135 -129 -216 -315 -351 -71 -51 -120 -117 -131 -172 -21 -112 85
-224 212 -224 198 0 480 224 613 487 96 191 137 449 95 594 -38 133 -151 265
-278 328 -107 52 -299 74 -444 50z m-1122 -1194 c0 -2 -22 -69 -49 -148 -120
-351 -202 -775 -227 -1166 l-7 -115 -87 -130 c-48 -72 -118 -180 -155 -241
-37 -60 -84 -137 -105 -170 -20 -33 -63 -103 -95 -155 -58 -95 -71 -115 -200
-325 -260 -420 -378 -543 -480 -501 -38 16 -66 67 -92 171 -16 61 -18 116 -17
415 0 303 4 390 32 715 18 204 48 512 67 685 19 173 41 394 50 490 30 333 39
370 99 395 22 9 112 18 252 25 121 6 379 22 574 34 389 26 440 28 440 21z
m-3501 -1047 c-71 -184 -279 -522 -452 -735 -80 -99 -83 -91 -28 75 74 227
180 398 365 589 65 68 122 123 127 123 5 0 -1 -24 -12 -52z m-2211 -568 c4
-37 -36 -71 -90 -77 -81 -9 -91 53 -15 88 58 26 101 22 105 -11z"/>
</g>
</svg>
