<?xml version="1.0" standalone="no"?>
<!DOCTYPE svg PUBLIC "-//W3C//DTD SVG 20010904//EN"
 "http://www.w3.org/TR/2001/REC-SVG-20010904/DTD/svg10.dtd">
<svg version="1.0" xmlns="http://www.w3.org/2000/svg"
 width="512.000000pt" height="512.000000pt" viewBox="0 0 512.000000 512.000000"
 preserveAspectRatio="xMidYMid meet">
<metadata>
Created by potrace 1.14, written by Peter Selinger 2001-2017
</metadata>
<g transform="translate(0.000000,512.000000) scale(0.100000,-0.100000)"
fill="#000000" stroke="none">
<path d="M2082 4549 c-17 -5 -45 -24 -62 -42 -60 -64 -120 -138 -120 -147 0
-5 30 -6 68 -3 84 7 150 -12 215 -62 51 -39 53 -64 10 -92 -25 -16 -53 -62
-53 -85 0 -7 28 -22 63 -33 98 -31 162 -110 124 -153 -10 -11 -12 -24 -7 -37
5 -11 9 -31 9 -44 1 -18 -3 -22 -16 -16 -10 5 -28 9 -40 10 -13 1 -39 18 -59
39 -20 20 -49 40 -66 43 -26 5 -29 9 -24 33 7 35 -29 106 -67 134 -20 15 -44
21 -82 21 -51 0 -54 1 -59 28 -12 59 -120 130 -169 111 -11 -4 -30 9 -55 35
-35 37 -44 41 -88 41 -32 0 -59 -7 -79 -20 -16 -11 -34 -16 -40 -11 -20 16
-62 20 -97 11 -33 -10 -108 -78 -108 -99 0 -5 -19 -11 -42 -15 -41 -7 -55 -18
-153 -126 -39 -42 -58 -90 -52 -131 4 -31 0 -42 -20 -61 -56 -52 -69 -127 -33
-186 11 -18 20 -46 20 -63 0 -17 4 -38 10 -48 6 -12 5 -28 -2 -48 -15 -41 -3
-81 38 -120 28 -26 44 -33 76 -33 34 0 39 -3 33 -17 -21 -54 -18 -82 12 -110
75 -71 129 -102 181 -103 42 0 76 32 68 66 -5 18 -2 24 9 24 9 0 30 7 47 16
l32 17 -27 -32 c-44 -53 -28 -128 22 -102 11 6 60 11 110 11 77 0 90 -2 93
-17 3 -14 12 -7 37 27 18 25 37 45 43 45 16 0 34 -60 42 -140 l8 -70 -35 38
c-19 20 -40 37 -47 37 -9 0 -8 -6 4 -19 48 -53 59 -189 30 -356 -23 -128 -24
-443 -2 -557 l15 -76 -29 -6 c-36 -7 -35 -16 5 -59 17 -20 63 -93 101 -163 89
-167 173 -300 268 -429 43 -58 89 -128 104 -157 14 -29 33 -60 41 -70 10 -11
11 -18 4 -23 -38 -23 20 -111 132 -200 42 -34 71 -64 69 -73 -10 -44 126 -130
243 -153 61 -12 64 -14 49 -30 -25 -28 -13 -52 45 -86 67 -40 127 -53 244 -53
136 1 219 38 295 135 17 22 44 55 59 74 23 28 28 44 28 88 0 51 -3 57 -42 94
-35 32 -49 39 -84 39 -22 0 -54 -8 -69 -17 -27 -16 -31 -16 -66 3 -138 72
-330 226 -434 348 -138 161 -183 270 -178 426 1 52 -1 101 -5 108 -23 36 -146
-8 -185 -68 -14 -21 -31 -35 -45 -35 -17 0 -25 -10 -37 -47 -8 -27 -17 -48
-20 -48 -10 0 -111 168 -160 266 -144 290 -186 588 -116 827 45 152 91 218
197 284 55 33 73 53 49 53 -23 0 -7 20 35 44 25 15 45 31 45 37 0 16 -48 29
-105 29 -30 0 -65 -4 -79 -10 -45 -17 -30 8 52 90 123 123 231 172 301 137 30
-15 31 -15 31 10 0 14 -12 37 -29 54 l-29 28 35 7 c19 4 45 2 59 -5 33 -15 32
-15 36 16 4 33 26 40 139 42 124 2 258 -50 346 -134 25 -25 48 -43 51 -41 2 2
6 22 9 44 4 27 -1 54 -16 88 l-22 49 49 -48 c54 -53 62 -50 62 18 0 45 -16 84
-46 116 l-25 27 31 4 c23 4 39 -2 68 -27 67 -56 97 -73 159 -89 33 -9 63 -16
67 -16 9 0 27 80 21 90 -15 24 28 6 82 -33 178 -131 268 -317 243 -502 -24
-177 -24 -174 -6 -181 9 -3 16 -16 16 -29 0 -74 46 -113 96 -80 14 9 27 15 28
13 2 -2 -4 -27 -12 -56 -17 -59 -58 -108 -100 -118 -42 -10 -53 -23 -41 -46
13 -24 2 -35 -44 -45 -35 -7 -45 -28 -23 -52 9 -10 16 -20 16 -24 0 -4 -32
-16 -71 -28 -93 -28 -182 -23 -257 15 -42 21 -57 25 -68 15 -17 -14 -18 -43
-3 -71 10 -18 8 -19 -13 -13 -104 32 -177 89 -201 160 -15 42 -51 60 -68 33
-6 -9 -9 -4 -9 15 0 20 5 27 18 27 24 0 62 41 62 67 0 14 8 23 25 27 14 4 32
20 41 39 l17 32 18 -39 17 -39 18 29 c13 19 19 46 18 81 0 57 13 58 25 2 l6
-32 20 29 c57 88 11 219 -96 274 -70 36 -122 44 -181 26 -71 -20 -144 -70
-182 -124 l-31 -44 -8 53 c-14 100 -79 176 -174 205 -83 25 -156 3 -212 -63
-17 -21 -45 -51 -60 -68 -58 -61 -68 -119 -26 -160 29 -30 36 -31 66 -6 20 16
22 23 13 38 -6 10 -20 18 -30 18 -24 1 -22 41 4 66 16 15 19 15 47 1 24 -13
26 -17 12 -20 -10 -2 -24 2 -32 8 -10 8 -15 9 -15 2 0 -17 41 -41 59 -35 45
16 44 72 -2 74 -18 1 -17 2 8 10 17 5 46 7 65 4 35 -6 110 -49 110 -63 0 -4
-17 -6 -37 -4 -21 1 -45 -2 -53 -7 -12 -9 -8 -17 24 -50 l38 -39 -70 2 c-39 0
-74 -2 -78 -7 -4 -4 9 -25 30 -46 l38 -39 -21 -21 c-29 -29 -27 -58 7 -75 51
-26 92 -79 150 -191 45 -86 72 -125 127 -180 39 -39 89 -79 113 -89 34 -15 42
-24 38 -38 -15 -46 -16 -54 -8 -66 8 -11 18 -11 58 3 44 15 63 16 179 5 108
-10 143 -9 211 3 160 29 280 93 404 217 107 106 203 233 257 342 72 143 83
216 63 434 -15 166 -75 296 -199 427 -80 85 -248 208 -226 165 3 -7 0 -5 -8 4
-8 10 -17 15 -20 11 -4 -3 -7 -1 -7 6 0 19 -137 79 -245 106 -158 41 -350 44
-523 9 l-34 -7 33 46 c37 53 51 138 27 170 -13 17 -16 16 -55 -12 -22 -16 -53
-46 -68 -65 -19 -25 -35 -36 -54 -36 -18 0 -37 -12 -64 -42 -22 -25 -31 -32
-22 -16 9 15 15 33 12 40 -2 7 0 22 5 33 5 12 -1 8 -17 -10 l-26 -30 10 27 c7
19 7 27 0 25 -16 -3 -39 73 -39 134 0 70 -35 189 -55 189 -8 0 -22 -14 -31
-32 l-17 -32 -19 38 c-23 45 -86 109 -127 131 -17 8 -54 20 -81 25 -28 5 -62
19 -78 30 -32 24 -104 33 -150 19z m372 -148 c20 -21 48 -64 61 -97 19 -46 25
-54 30 -39 4 11 13 36 22 55 l15 35 19 -45 c13 -34 18 -69 17 -140 -1 -86 -2
-89 -7 -33 -9 90 -21 88 -22 -3 -2 -123 -16 -158 -18 -44 -1 64 -7 103 -17
120 -14 24 -14 24 -9 -15 6 -39 5 -38 -13 12 -19 53 -66 128 -121 193 -25 31
-27 36 -12 37 10 1 35 -15 55 -36z m-254 19 c0 -5 -2 -10 -4 -10 -3 0 -8 5
-11 10 -3 6 -1 10 4 10 6 0 11 -4 11 -10z m187 -42 c37 -25 103 -104 103 -124
0 -3 -18 13 -41 37 l-40 44 28 -45 c35 -55 56 -101 48 -108 -3 -3 -5 0 -5 6 0
14 -71 95 -77 88 -2 -2 11 -24 30 -49 19 -24 39 -66 46 -92 15 -58 9 -70 -7
-16 -25 82 -140 159 -199 132 -34 -16 -29 6 7 24 16 8 45 15 65 15 l37 0 -25
43 c-13 23 -28 53 -32 66 -8 26 -7 26 62 -21z m-837 -108 c23 15 77 12 94 -6
9 -8 16 -25 15 -37 0 -15 -2 -17 -6 -7 -11 30 -37 50 -65 50 -34 0 -35 -7 -7
-31 19 -16 20 -21 8 -36 -13 -15 -12 -16 9 -11 13 4 20 2 16 -4 -3 -5 -17 -7
-30 -4 -13 4 -24 2 -24 -3 0 -5 8 -12 18 -14 15 -4 15 -5 0 -6 -9 0 -25 10
-36 24 -21 27 -47 33 -55 13 -3 -7 -6 -1 -6 15 -1 30 37 77 48 59 4 -7 12 -8
21 -2z m-135 -11 c30 -2 30 -2 -5 -9 -28 -6 -30 -8 -10 -9 14 -1 32 -6 40 -11
11 -7 6 -8 -17 -4 -29 6 -33 4 -33 -15 0 -24 -28 -29 -36 -6 -5 12 -9 13 -20
4 -12 -10 -13 -8 -7 7 6 17 5 18 -12 4 -17 -13 -18 -13 -10 0 20 36 40 51 60
46 11 -3 34 -6 50 -7z m199 -15 c9 -8 16 -20 16 -25 0 -5 -9 0 -20 11 -19 19
-25 30 -16 30 3 0 12 -7 20 -16z m209 -17 c18 -8 39 -22 47 -33 11 -13 5 -11
-20 6 -24 17 -49 25 -77 25 -22 0 -39 3 -36 8 7 11 51 8 86 -6z m495 6 c-10
-2 -26 -2 -35 0 -10 3 -2 5 17 5 19 0 27 -2 18 -5z m31 -27 c15 -8 34 -23 42
-32 8 -11 1 -8 -19 6 -21 16 -47 25 -72 25 -21 0 -36 3 -34 7 8 13 53 9 83 -6z
m-503 -80 c3 -12 0 -33 -6 -46 -10 -24 -10 -24 -5 4 6 30 -16 76 -37 76 -6 0
-3 -9 6 -19 13 -14 16 -26 10 -43 -8 -22 -8 -22 -13 6 -7 36 -30 46 -38 17 -3
-12 -10 -20 -17 -18 -14 5 -26 66 -15 73 5 3 7 9 4 14 -3 5 3 10 12 12 23 5
91 -47 99 -76z m503 50 c15 -8 34 -23 42 -33 13 -17 13 -17 -6 -1 -12 9 -36
24 -55 32 -19 8 -29 15 -22 16 7 0 25 -6 41 -14z m-927 -16 c21 -6 40 -16 44
-21 4 -8 0 -7 -14 0 -25 13 -42 14 -42 2 0 -5 10 -12 23 -16 14 -4 17 -8 9
-12 -10 -4 -10 -9 3 -23 21 -23 16 -54 -10 -59 -11 -2 -23 -8 -26 -13 -7 -12
-59 1 -59 14 0 6 -7 8 -15 4 -8 -3 -15 -2 -15 3 0 5 -9 11 -21 14 -36 10 -10
64 46 99 35 21 30 21 77 8z m-204 -31 c-9 -6 -6 -9 12 -10 l25 -1 -25 -8 c-14
-4 -19 -8 -12 -9 7 -1 10 -5 7 -11 -3 -5 -1 -10 4 -10 6 0 11 -9 11 -20 0 -24
-13 -26 -30 -5 -7 8 -16 12 -21 9 -5 -3 -9 0 -9 6 0 6 -4 8 -10 5 -5 -3 -10 0
-10 9 0 8 -3 21 -6 30 -7 18 29 36 59 28 14 -4 16 -7 5 -13z m559 -31 c-3 -7
-5 -2 -5 12 0 14 2 19 5 13 2 -7 2 -19 0 -25z m1170 10 c-3 -13 -8 -34 -11
-47 -12 -52 -28 -90 -42 -102 -10 -8 -9 1 6 32 30 67 23 81 -9 19 -16 -30 -39
-64 -51 -75 l-22 -20 21 35 c32 54 25 70 -8 18 -16 -25 -35 -49 -43 -53 -10
-6 -11 -5 0 6 6 7 12 17 12 22 0 5 -28 -16 -62 -47 -65 -60 -93 -68 -39 -12
18 18 31 40 29 47 -4 19 33 79 49 79 6 0 16 -7 21 -16 7 -13 14 -8 35 29 26
43 91 107 110 107 5 0 7 -10 4 -22z m-1341 -3 c10 -8 26 -15 35 -15 9 0 23 -8
30 -17 13 -16 12 -17 -4 -4 -22 17 -34 7 -17 -14 10 -12 10 -21 2 -40 -14 -31
-36 -32 -56 -4 -8 12 -19 18 -25 14 -6 -3 -11 0 -11 8 0 8 -7 20 -15 27 -14
12 -13 16 6 37 26 27 29 28 55 8z m397 -12 c-30 -6 -29 -11 12 -49 19 -17 35
-40 35 -50 -1 -15 -4 -14 -15 7 -8 15 -21 29 -30 33 -19 7 -19 1 1 -29 12 -18
13 -28 4 -44 -6 -12 -13 -21 -16 -21 -3 0 -1 8 5 17 6 11 6 24 0 35 -13 25
-29 23 -26 -3 3 -32 -14 -33 -46 -3 -27 24 -27 27 -12 44 9 10 14 23 11 29 -4
5 4 13 16 17 22 7 22 7 3 15 -14 5 -4 7 30 7 28 0 40 -3 28 -5z m604 -65 c-3
-8 -6 -5 -6 6 -1 11 2 17 5 13 3 -3 4 -12 1 -19z m-837 -28 c19 0 60 -44 60
-64 -1 -6 -8 1 -16 17 -17 32 -30 35 -39 7 -7 -21 -35 -28 -35 -9 0 5 -4 7
-10 4 -10 -6 -14 7 -11 33 1 6 -3 12 -8 12 -17 0 -1 29 17 32 10 2 18 -4 20
-14 2 -10 12 -18 22 -18z m-410 -30 c-6 -11 -8 -25 -5 -30 10 -16 -6 -60 -22
-60 -8 0 -11 -4 -8 -10 10 -16 -12 -12 -29 6 -15 14 -16 13 -16 -8 l-1 -23
-14 25 c-11 20 -14 21 -15 7 0 -10 5 -28 11 -40 9 -17 9 -19 -1 -11 -6 7 -16
31 -21 55 -10 43 -9 45 25 76 26 24 45 33 71 33 33 0 35 -2 25 -20z m-195 0
c-3 -5 -2 -10 2 -10 5 0 18 -7 29 -16 10 -8 13 -12 5 -8 -21 11 -32 -18 -14
-38 18 -20 11 -48 -12 -48 -8 0 -24 9 -35 20 -11 11 -29 20 -40 20 -30 0 -26
44 6 69 27 21 70 29 59 11z m325 -10 c0 -12 7 -20 18 -21 16 -1 16 -2 0 -6
-21 -5 -21 -4 -8 -37 7 -19 5 -29 -6 -41 -15 -15 -27 -14 -71 2 -6 3 -14 -4
-17 -14 -3 -10 -4 -1 -3 20 2 27 0 36 -10 33 -35 -14 17 48 62 72 29 16 35 15
35 -8z m308 -31 c-3 -8 -7 -3 -11 10 -4 17 -3 21 5 13 5 -5 8 -16 6 -23z m169
5 c-3 -3 -12 -4 -19 -1 -8 3 -5 6 6 6 11 1 17 -2 13 -5z m1384 -15 c38 -7 69
-15 69 -20 0 -4 25 -21 55 -38 30 -17 55 -36 55 -43 0 -7 -7 -5 -17 4 -29 25
-83 50 -83 38 0 -7 -7 -7 -22 1 -15 8 -23 9 -26 1 -2 -7 -16 -6 -44 4 -25 9
-44 11 -47 5 -4 -6 -32 -3 -71 6 -96 22 -279 13 -390 -20 -47 -14 -86 -24 -88
-22 -7 7 150 57 233 75 104 22 272 26 376 9z m-1366 -29 c5 -8 12 -7 23 2 9 7
13 8 10 3 -4 -6 2 -16 12 -23 12 -7 21 -8 25 -2 3 6 11 10 17 10 6 0 5 -7 -3
-17 -12 -15 -12 -16 4 -10 15 6 14 1 -7 -24 -14 -17 -26 -37 -26 -44 0 -16
-30 -9 -42 8 -11 17 -57 -20 -89 -71 -24 -37 -29 -41 -24 -19 7 27 -8 39 -18
15 -3 -7 -6 9 -6 36 -1 46 2 52 48 97 49 50 65 57 76 39z m-195 -35 c12 -19
25 -33 30 -30 4 3 7 -22 6 -54 -1 -61 -3 -61 -36 1 -23 44 -26 61 -5 34 27
-36 27 -8 0 38 -31 54 -27 63 5 11z m-61 -58 c-14 -40 -24 -48 -116 -98 -25
-13 -47 -6 -94 31 -14 12 -35 22 -47 23 -28 2 -28 3 8 22 38 20 123 20 140 0
10 -12 16 -13 26 -4 8 7 13 17 12 23 -2 6 13 28 32 47 33 34 36 35 44 17 7
-13 5 -33 -5 -61z m451 37 c0 -8 5 -12 11 -8 6 3 9 15 6 25 -7 28 2 23 13 -7
6 -14 15 -22 21 -18 7 4 9 -2 7 -16 -1 -13 -11 -28 -20 -34 -22 -13 -41 3 -63
57 -15 37 -15 38 5 27 11 -6 20 -18 20 -26z m-811 -39 c19 -34 20 -38 5 -60
-19 -29 -18 -29 -44 -12 -17 10 -22 9 -30 -3 -9 -13 -14 -9 -7 6 1 3 -8 11
-19 17 -30 16 -15 53 28 72 45 19 43 20 67 -20z m1641 25 c-37 -6 -39 -7 -15
-9 17 -1 39 -7 50 -12 14 -6 6 -7 -25 -3 -54 7 -50 -2 6 -15 29 -7 33 -9 14
-10 -16 -1 0 -10 45 -24 l69 -23 -56 0 c-34 -1 -56 3 -55 9 3 14 -37 25 -108
28 l-60 2 60 7 c52 5 56 7 33 14 -16 4 -28 12 -28 17 0 5 -15 10 -32 10 l-33
1 30 8 c17 4 57 7 90 7 59 0 60 0 15 -7z m77 -6 c-3 -3 -12 -4 -19 -1 -8 3 -5
6 6 6 11 1 17 -2 13 -5z m-220 -10 c-3 -3 -12 -4 -19 -1 -8 3 -5 6 6 6 11 1
17 -2 13 -5z m-1082 -57 c27 -48 35 -86 10 -49 -18 25 -47 92 -41 92 3 0 17
-20 31 -43z m462 -37 c-8 -93 -50 -190 -154 -351 -44 -69 -89 -141 -99 -160
l-18 -34 -11 55 c-10 54 -10 56 20 86 96 98 142 177 152 263 5 42 3 50 -17 64
-26 18 -19 37 15 37 30 0 49 32 42 69 -5 25 -4 27 22 23 16 -2 32 1 35 7 15
24 19 8 13 -59z m1574 19 c73 -54 151 -134 200 -205 53 -78 120 -238 91 -220
-6 3 -13 20 -17 37 -4 17 -13 33 -21 36 -7 2 -16 14 -20 25 -3 11 -8 17 -10
15 -3 -2 3 -38 12 -78 12 -54 15 -96 10 -156 -3 -46 -3 -83 1 -83 26 1 38 24
44 82 l6 63 1 -62 c1 -35 7 -63 12 -63 11 0 4 -42 -12 -73 -8 -15 -12 -16 -24
-6 -17 14 -18 14 -38 -31 -14 -30 -15 -31 -11 -7 5 27 -9 38 -18 15 -3 -7 -6
-2 -7 12 l-1 25 -14 -25 -15 -25 6 27 c4 20 2 29 -10 34 -9 3 -16 13 -16 21 0
8 -4 11 -10 8 -5 -3 -10 2 -10 12 0 15 -2 16 -11 3 -8 -11 -9 -8 -4 13 4 19 2
26 -5 22 -14 -9 -12 32 4 85 l15 45 1 -35 c1 -29 3 -32 10 -15 5 11 9 14 9 7
1 -7 10 -22 21 -34 11 -12 20 -35 20 -52 0 -24 3 -27 13 -17 22 22 15 186 -11
263 -38 110 -133 236 -242 322 -26 20 -28 25 -10 16 l25 -11 -27 24 c-23 21
-27 37 -10 37 2 0 35 -23 73 -51z m-1841 37 c0 -2 -8 -10 -17 -17 -16 -13 -17
-12 -4 4 13 16 21 21 21 13z m1560 -21 c13 -14 21 -25 18 -25 -2 0 -15 11 -28
25 -13 14 -21 25 -18 25 2 0 15 -11 28 -25z m-2254 -78 c5 -7 1 -4 -8 6 -10
11 -18 31 -17 46 1 24 2 23 9 -6 4 -18 11 -39 16 -46z m725 56 c-5 -10 -22
-29 -37 -43 -23 -21 -22 -18 7 17 37 46 45 53 30 26z m1012 10 c-7 -2 -19 -2
-25 0 -7 3 -2 5 12 5 14 0 19 -2 13 -5z m-1009 -55 c-16 -23 -34 -43 -41 -45
-7 -3 1 10 17 27 16 17 32 40 35 51 4 11 9 18 13 15 3 -4 -8 -25 -24 -48z
m-236 6 c-4 -3 -12 5 -18 18 -12 22 -12 22 6 6 10 -10 15 -20 12 -24z m1235
29 c-7 -2 -19 -2 -25 0 -7 3 -2 5 12 5 14 0 19 -2 13 -5z m112 -3 c11 -5 16
-9 11 -9 -5 -1 1 -12 14 -26 l24 -26 -45 22 c-60 30 -63 65 -4 39z m-1080 -39
c-21 -43 -29 -39 -8 4 9 19 18 33 21 31 2 -2 -4 -18 -13 -35z m-826 -2 c15
-43 14 -59 -4 -59 -8 0 -15 5 -15 10 0 6 -13 8 -31 5 -17 -3 -37 0 -45 6 -12
10 -12 15 3 32 18 19 48 35 70 36 6 1 16 -13 22 -30z m92 14 c13 -16 12 -17
-3 -4 -10 7 -18 15 -18 17 0 8 8 3 21 -13z m160 -26 l23 -32 -23 20 c-13 11
-27 28 -33 39 -16 29 7 11 33 -27z m1576 27 c-3 -3 -12 -4 -19 -1 -8 3 -5 6 6
6 11 1 17 -2 13 -5z m-731 -73 c-25 -47 -18 -51 10 -6 19 29 24 33 19 15 -6
-24 -5 -23 15 5 20 28 21 28 14 5 -15 -54 -25 -71 -74 -125 -28 -31 -49 -63
-46 -70 2 -7 -10 -26 -27 -41 -27 -25 -29 -25 -9 -3 37 43 25 45 -19 4 -83
-80 -159 -215 -220 -393 -24 -69 -38 -100 -35 -76 8 59 53 188 94 269 47 94
173 291 214 337 19 20 43 55 53 77 10 23 20 39 22 37 3 -2 -3 -18 -11 -35z
m874 -8 l25 -28 -35 30 c-55 47 -56 48 -35 37 11 -6 31 -23 45 -39z m-1247
-18 c40 -28 46 -45 22 -65 -12 -10 -21 -8 -50 14 -19 15 -49 33 -67 41 l-33
13 35 10 c51 15 52 14 93 -13z m1218 8 c13 -16 12 -17 -3 -4 -17 13 -22 21
-14 21 2 0 10 -8 17 -17z m-1364 -24 c-20 -28 -11 -55 28 -79 40 -25 57 -64
53 -119 l-3 -41 -42 21 c-49 24 -62 54 -56 125 4 38 1 55 -10 65 -14 13 -13
16 0 32 9 9 22 17 30 17 12 0 12 -3 0 -21z m-250 -1 c16 -7 28 -18 26 -24 -2
-7 9 -17 24 -22 26 -10 23 -10 -24 -11 -58 -1 -84 -20 -31 -23 18 0 44 -1 58
0 23 1 23 1 5 -8 -11 -5 -57 -9 -103 -9 -94 -1 -146 -18 -179 -58 -12 -15 -25
-24 -28 -21 -4 3 4 15 16 27 29 27 17 40 -13 15 -13 -10 -10 -5 6 14 36 38 30
50 -10 21 -28 -21 -28 -20 2 9 17 16 38 32 45 35 12 4 12 7 1 15 -20 14 73 51
129 52 26 0 60 -6 76 -12z m163 -102 c-4 -65 -8 -80 -22 -82 -28 -4 -25 90 4
132 13 18 23 32 23 31 1 -1 -2 -38 -5 -81z m-426 -105 c31 -21 19 -39 -14 -21
-23 12 -40 41 -40 67 1 15 3 14 14 -5 7 -13 25 -31 40 -41z m151 -26 c20 -8
38 -21 41 -30 9 -23 -14 -45 -48 -45 l-30 0 23 21 24 20 -30 -5 c-16 -2 -37
-7 -45 -11 -9 -3 -24 1 -34 8 -18 14 -18 15 2 35 26 26 50 27 97 7z m432 -53
c13 -8 30 -75 36 -144 5 -58 -8 -54 -18 4 -4 23 -16 66 -26 95 -18 52 -16 60
8 45z m822 -70 c13 -13 11 -14 -18 -7 -55 12 -96 8 -145 -13 -55 -25 -59 -22
-10 9 64 39 140 44 173 11z m-17 -22 c80 -23 136 -100 145 -199 l5 -56 -22 25
c-11 14 -29 41 -39 60 -38 70 -110 122 -189 135 -47 8 -47 20 1 34 43 12 56
13 99 1z m531 -64 c3 -8 1 -17 -6 -20 -7 -4 -2 -4 11 -2 12 2 20 0 17 -4 -3
-5 3 -11 14 -15 10 -3 18 -13 17 -22 -2 -9 15 -34 36 -55 21 -21 38 -43 38
-49 0 -7 -9 0 -21 15 -11 14 -25 23 -31 20 -7 -5 -8 -2 -3 7 8 12 6 12 -8 1
-9 -8 -21 -10 -28 -6 -6 4 -19 8 -28 9 -49 6 -102 19 -107 26 -3 5 -9 7 -13 5
-4 -3 -25 -7 -46 -9 -22 -3 -49 -9 -60 -13 -18 -7 -18 -6 -6 9 7 10 34 24 60
31 25 8 37 15 26 16 -11 1 -14 4 -7 7 6 2 10 8 7 13 -2 4 9 10 26 14 17 3 28
10 25 15 -7 10 15 18 55 20 15 0 29 -5 32 -13z m-116 -12 c-3 -3 -12 -4 -19
-1 -8 3 -5 6 6 6 11 1 17 -2 13 -5z m-1172 -209 c3 -44 2 -131 -2 -193 -5 -63
-5 -116 -1 -118 5 -3 7 -51 7 -107 -1 -69 -4 -92 -9 -72 -7 28 -8 29 -10 5 -1
-14 -3 -49 -4 -79 -1 -60 -20 -80 -33 -34 -4 15 -8 107 -8 203 0 137 5 205 23
310 14 82 21 154 18 185 -4 43 -4 45 4 15 5 -19 11 -71 15 -115z m815 76 c-5
-10 -6 -21 -2 -25 3 -4 7 -29 8 -56 l1 -49 -24 19 c-18 14 -30 16 -53 10 -39
-11 -41 10 -3 40 23 18 25 24 15 40 -17 28 -15 36 11 47 31 15 61 -1 47 -26z
m1405 -72 c-18 -70 -52 -142 -85 -179 -15 -18 -14 -14 5 17 30 46 84 194 86
233 1 15 3 19 6 9 2 -10 -3 -45 -12 -80z m-995 53 l22 -18 -32 -32 c-17 -18
-26 -32 -18 -32 10 0 10 -2 -1 -9 -8 -5 -37 -7 -65 -5 -31 2 -57 -1 -70 -9
-12 -8 -30 -17 -41 -21 -16 -6 -14 -1 9 23 16 17 27 34 23 37 -11 12 -88 -71
-102 -111 -17 -48 -19 -31 -4 30 14 55 70 122 123 146 54 24 127 25 156 1z
m-86 -147 c3 -8 16 -15 28 -15 17 0 19 -3 9 -9 -11 -7 -10 -10 5 -14 16 -4 16
-5 -3 -6 -31 -1 -29 -21 1 -21 38 0 43 -21 10 -47 -16 -12 -33 -23 -39 -23 -5
0 -27 -16 -48 -35 -61 -56 -87 -43 -47 23 23 38 25 46 8 36 -7 -4 -6 1 3 12
23 27 14 47 -14 33 -21 -11 -21 -10 2 15 14 14 20 26 15 26 -14 1 36 40 51 40
7 0 15 -7 19 -15z m49 -2 c-7 -2 -21 -2 -30 0 -10 3 -4 5 12 5 17 0 24 -2 18
-5z m927 -116 c0 -2 -10 -12 -22 -23 l-23 -19 19 23 c18 21 26 27 26 19z
m-747 -364 c-7 -2 -21 -2 -30 0 -10 3 -4 5 12 5 17 0 24 -2 18 -5z m205 -10
c-11 -10 -37 -17 -75 -19 -48 -2 -52 -1 -23 5 l35 8 -45 3 -45 3 35 7 c19 4
57 8 85 9 46 1 48 0 33 -16z m-1558 -228 c13 -14 21 -25 18 -25 -2 0 -15 11
-28 25 -13 14 -21 25 -18 25 2 0 15 -11 28 -25z m135 -230 c49 -103 79 -155
89 -155 21 0 20 16 -4 50 -16 23 -17 29 -6 33 10 4 31 -23 67 -81 85 -140 86
-141 56 -107 -27 31 -37 24 -13 -10 34 -49 86 -135 82 -135 -2 0 -25 28 -50
62 -25 34 -46 55 -46 47 0 -8 29 -53 65 -101 36 -49 63 -88 60 -88 -2 0 -45
52 -95 115 -51 63 -94 115 -97 115 -5 0 3 -15 29 -52 11 -16 17 -28 14 -28 -9
0 -143 206 -173 263 -31 63 -45 99 -34 93 14 -9 5 67 -13 102 -9 17 -14 32
-11 32 3 0 39 -70 80 -155z m41 -17 c14 -29 19 -46 11 -38 -15 15 -50 90 -42
90 3 0 16 -24 31 -52z m449 -95 c-3 -16 -11 -29 -16 -31 -15 -6 -9 -114 9
-168 33 -93 85 -166 207 -288 66 -66 102 -106 80 -89 -70 54 -203 200 -252
275 -26 40 -48 67 -51 60 -9 -27 78 -143 197 -262 123 -123 91 -109 -43 19
-38 36 -60 53 -49 36 33 -48 161 -167 253 -234 128 -94 117 -92 -29 5 -36 24
-67 41 -70 38 -3 -2 5 -11 17 -20 12 -8 22 -24 22 -35 0 -18 -1 -19 -25 -3
-26 17 -34 7 -12 -15 6 -7 -31 16 -84 51 -52 34 -94 66 -92 70 2 4 -10 16 -27
27 -21 12 -27 21 -18 24 16 6 -34 27 -65 27 -44 1 25 29 73 30 l45 1 -30 21
c-65 48 -156 143 -176 185 -16 33 -20 56 -16 89 2 25 7 48 11 51 3 3 21 -6 40
-21 19 -14 36 -26 38 -26 2 0 3 30 3 68 0 53 5 75 23 105 28 44 47 49 37 10z
m2 -130 c-3 -10 -5 -4 -5 12 0 17 2 24 5 18 2 -7 2 -21 0 -30z m22 -68 c0 -5
-4 -3 -9 5 -5 8 -9 22 -9 30 0 16 17 -16 18 -35z m25 -52 c9 -18 14 -33 12
-33 -6 0 -36 55 -36 66 0 11 5 3 24 -33z m-363 0 c13 -16 12 -17 -3 -4 -10 7
-18 15 -18 17 0 8 8 3 21 -13z m30 -40 c13 -16 12 -17 -3 -4 -10 7 -18 15 -18
17 0 8 8 3 21 -13z m34 -43 c10 -11 16 -20 13 -20 -3 0 -13 9 -23 20 -10 11
-16 20 -13 20 3 0 13 -9 23 -20z m255 -295 c33 -19 21 -19 -21 0 -19 8 -27 14
-19 14 8 0 26 -6 40 -14z m183 -107 c48 -32 87 -61 87 -63 0 -3 -12 2 -27 12
-50 32 -188 125 -193 131 -13 13 54 -27 133 -80z m-12 -93 c30 -14 43 -22 29
-19 -26 7 -100 43 -89 44 4 0 31 -11 60 -25z m579 -28 c15 4 20 0 20 -16 0
-16 -6 -21 -25 -21 -21 0 -25 5 -24 28 0 15 3 22 5 16 3 -7 14 -10 24 -7z m80
-40 c0 -35 -45 -99 -83 -118 -12 -6 -6 3 14 20 42 35 63 80 57 116 -3 13 -1
22 3 19 5 -3 9 -20 9 -37z m-34 -9 c-3 -18 -19 -45 -34 -61 -30 -32 -116 -77
-147 -77 -11 0 7 11 40 25 65 27 135 91 135 125 0 11 3 20 6 20 4 0 4 -14 0
-32z m-281 -77 c50 -4 73 -9 53 -10 -21 0 -38 -6 -38 -12 0 -14 80 -3 128 17
18 7 30 9 27 4 -22 -35 -282 -59 -347 -32 -49 20 -30 30 30 16 68 -16 112 -18
112 -4 0 6 -12 10 -27 10 -35 0 -101 18 -107 29 -3 5 13 4 37 0 23 -5 83 -13
132 -18z m-42 22 c-7 -2 -19 -2 -25 0 -7 3 -2 5 12 5 14 0 19 -2 13 -5z m357
-17 c0 -2 -8 -10 -17 -17 -16 -13 -17 -12 -4 4 13 16 21 21 21 13z m-397 -73
c-7 -2 -21 -2 -30 0 -10 3 -4 5 12 5 17 0 24 -2 18 -5z m140 0 c-13 -2 -33 -2
-45 0 -13 2 -3 4 22 4 25 0 35 -2 23 -4z m-26 -29 c-3 -3 -12 -4 -19 -1 -8 3
-5 6 6 6 11 1 17 -2 13 -5z"/>
<path d="M1796 3465 c-7 -29 2 -91 12 -81 3 3 11 1 19 -5 19 -16 17 5 -6 65
-18 47 -18 48 -25 21z"/>
<path d="M3150 3081 c8 -5 29 -11 45 -14 l30 -6 -30 14 c-34 16 -72 21 -45 6z"/>
<path d="M2160 1694 l-25 -14 28 0 c17 0 27 5 27 15 0 8 -1 15 -2 14 -2 -1
-14 -7 -28 -15z"/>
<path d="M2190 1650 c-8 -5 -11 -12 -8 -16 10 -9 38 3 38 16 0 12 -10 13 -30
0z"/>
</g>
</svg>
